<svg width="158" height="71" viewBox="0 0 158 71" fill="none" xmlns="http://www.w3.org/2000/svg">
<path d="M44.2424 17.6614C44.2424 16.254 43.1015 15.1131 41.694 15.1131L18.7585 15.1131C17.3511 15.1131 16.2102 16.254 16.2102 17.6614C16.2102 19.0689 17.3511 20.2098 18.7585 20.2098L39.1456 20.2098L39.1456 40.5969C39.1456 42.0044 40.2866 43.1453 41.694 43.1453C43.1015 43.1453 44.2424 42.0044 44.2424 40.5969L44.2424 17.6614ZM6.0166 53.3389L7.81858 55.1408L43.496 19.4634L41.694 17.6614L39.892 15.8595L4.21462 51.5369L6.0166 53.3389Z" fill="currentColor"/>
<path d="M68.3089 49.5V26.7021H60.6382V23.2057H80.2251V26.7021H72.5188V49.5H68.3089ZM89.9043 49.9995C88.1204 49.9995 86.5031 49.5951 85.0522 48.7865C83.6013 47.954 82.4477 46.7766 81.5915 45.2544C80.7352 43.7084 80.3071 41.8531 80.3071 39.6887C80.3071 38.0951 80.5568 36.668 81.0563 35.4074C81.5558 34.123 82.2337 33.0408 83.0899 32.1608C83.9462 31.2569 84.9095 30.5672 85.9798 30.0915C87.0501 29.6158 88.1442 29.3779 89.2621 29.3779C90.9984 29.3779 92.4612 29.7704 93.6504 30.5553C94.8397 31.3164 95.7435 32.3986 96.3619 33.8019C96.9803 35.1815 97.2895 36.7988 97.2895 38.6541C97.2895 39.0584 97.2657 39.4509 97.2182 39.8314C97.1944 40.1882 97.1468 40.4974 97.0755 40.759H84.3386C84.4575 41.9958 84.7786 43.0662 85.3019 43.97C85.849 44.85 86.5506 45.5398 87.4069 46.0393C88.2869 46.515 89.2859 46.7528 90.4038 46.7528C91.2838 46.7528 92.1044 46.622 92.8655 46.3604C93.6266 46.0988 94.364 45.742 95.0775 45.2901L96.5046 47.8945C95.6008 48.4891 94.5899 48.9886 93.472 49.393C92.3779 49.7973 91.1887 49.9995 89.9043 49.9995ZM84.3029 37.9048H93.7218C93.7218 36.2399 93.3412 34.9436 92.5801 34.016C91.8428 33.0884 90.7606 32.6246 89.3335 32.6246C88.5248 32.6246 87.7637 32.8268 87.0501 33.2311C86.3366 33.6354 85.73 34.2301 85.2306 35.015C84.7549 35.7999 84.4457 36.7632 84.3029 37.9048ZM102.085 49.5V29.8417H105.438L105.795 32.5889H105.867C106.77 31.7089 107.746 30.9596 108.792 30.3412C109.839 29.699 111.028 29.3779 112.36 29.3779C114.453 29.3779 115.975 30.0558 116.927 31.4115C117.902 32.7435 118.389 34.6582 118.389 37.1556V49.5H114.286V37.6551C114.286 35.9664 114.025 34.7652 113.502 34.0517C112.978 33.3143 112.134 32.9457 110.968 32.9457C110.065 32.9457 109.256 33.1716 108.542 33.6235C107.853 34.0517 107.068 34.7058 106.188 35.5858V49.5H102.085ZM122.743 57.9199C122.077 57.9199 121.494 57.8723 120.995 57.7772C120.495 57.682 120.067 57.5631 119.71 57.4204L120.46 54.3521C120.721 54.4235 121.007 54.4948 121.316 54.5662C121.625 54.6375 121.934 54.6732 122.243 54.6732C123.147 54.6732 123.754 54.3521 124.063 53.7099C124.372 53.0677 124.527 52.1758 124.527 51.0341V29.8417H128.665V50.9628C128.665 52.3185 128.475 53.5197 128.094 54.5662C127.714 55.6127 127.084 56.4333 126.204 57.0279C125.347 57.6226 124.194 57.9199 122.743 57.9199ZM126.56 26.2026C125.823 26.2026 125.216 25.9767 124.741 25.5248C124.265 25.0729 124.027 24.4663 124.027 23.7052C124.027 22.9917 124.265 22.4089 124.741 21.957C125.216 21.5051 125.823 21.2792 126.56 21.2792C127.321 21.2792 127.94 21.5051 128.416 21.957C128.891 22.4089 129.129 22.9917 129.129 23.7052C129.129 24.4663 128.891 25.0729 128.416 25.5248C127.94 25.9767 127.321 26.2026 126.56 26.2026ZM142.903 49.9995C141.285 49.9995 139.763 49.5951 138.336 48.7865C136.933 47.954 135.791 46.7766 134.911 45.2544C134.055 43.7084 133.627 41.8531 133.627 39.6887C133.627 37.5005 134.055 35.6453 134.911 34.123C135.791 32.577 136.933 31.3997 138.336 30.591C139.763 29.7823 141.285 29.3779 142.903 29.3779C144.092 29.3779 145.246 29.6158 146.364 30.0915C147.481 30.5434 148.468 31.2094 149.325 32.0894C150.181 32.9695 150.859 34.0517 151.358 35.3361C151.858 36.5967 152.108 38.0475 152.108 39.6887C152.108 41.8531 151.668 43.7084 150.788 45.2544C149.931 46.7766 148.801 47.954 147.398 48.7865C146.019 49.5951 144.52 49.9995 142.903 49.9995ZM142.903 46.5745C143.926 46.5745 144.806 46.289 145.543 45.7182C146.304 45.1474 146.887 44.3506 147.291 43.3278C147.695 42.2813 147.898 41.0682 147.898 39.6887C147.898 38.3092 147.695 37.108 147.291 36.0853C146.887 35.0388 146.304 34.2301 145.543 33.6592C144.806 33.0646 143.926 32.7673 142.903 32.7673C141.856 32.7673 140.952 33.0646 140.191 33.6592C139.454 34.2301 138.883 35.0388 138.479 36.0853C138.074 37.108 137.872 38.3092 137.872 39.6887C137.872 41.0682 138.074 42.2813 138.479 43.3278C138.883 44.3506 139.454 45.1474 140.191 45.7182C140.952 46.289 141.856 46.5745 142.903 46.5745Z" fill="currentColor"/>
</svg>
